{
 "cells": [
  {
   "cell_type": "code",
   "execution_count": 1,
   "metadata": {},
   "outputs": [
    {
     "name": "stdout",
     "output_type": "stream",
     "text": [
      "%pylab is deprecated, use %matplotlib inline and import the required libraries.\n",
      "Populating the interactive namespace from numpy and matplotlib\n"
     ]
    }
   ],
   "source": [
    "%pylab qt\n",
    "%load_ext autoreload\n",
    "%autoreload 2"
   ]
  },
  {
   "cell_type": "code",
   "execution_count": 3,
   "metadata": {},
   "outputs": [],
   "source": [
    "# Loop through the ggems mhd files and save them to an array\n",
    "import glob\n",
    "import fastcat as fc\n",
    "import numpy as np\n",
    "import matplotlib.pyplot as plt\n",
    "import mpl_interactions as pli\n",
    "from mpl_interactions import ipyplot as iplt\n",
    "# Zoom the ggems projections\n",
    "from scipy.ndimage import zoom\n",
    "\n",
    "ggems_scatter_files = glob.glob(\n",
    "    '/home/jericho/1-Workspace/opengate_ggems_comparison/2-fastcat_scatter_XCAT/test/out/ggems_3e09_121kVp_*scatter.mhd'\n",
    ")\n",
    "ggems_primary_files = glob.glob(\n",
    "    '/home/jericho/1-Workspace/opengate_ggems_comparison/2-fastcat_scatter_XCAT/test/out/ggems_3e09_121kVp_*[!scatter].mhd'\n",
    ")\n",
    "\n",
    "ggems_scatter_files.sort()\n",
    "ggems_primary_files.sort()\n",
    "\n",
    "ggems_primary_projections = []\n",
    "ggems_scatter_projections = []\n",
    "\n",
    "for ggems_scatter_file, ggems_primary_file in zip(ggems_scatter_files, ggems_primary_files):\n",
    "    ggems_prmiary, b, c = fc.utils.read_mhd(ggems_primary_file)\n",
    "    ggems_scatter, b, c = fc.utils.read_mhd(ggems_scatter_file)\n",
    "\n",
    "    ggems_primary_projections.append(ggems_prmiary.squeeze())\n",
    "    ggems_scatter_projections.append(ggems_scatter.squeeze())\n",
    "\n",
    "# Load the pickled phantom\n",
    "pkl_file = '/home/jericho/1-Workspace/opengate_ggems_comparison/2-fastcat_scatter_XCAT/test/ggems_1e03_121kVp.pkl'\n",
    "phantom = np.load(pkl_file, allow_pickle=True)\n",
    "\n",
    "phantom.simulation_parameters['angles'] = phantom.angles \n",
    "# Convert the phantom angles to degrees\n",
    "phantom_angles = phantom.angles * 180 / np.pi\n",
    "\n",
    "# Define the denoising functions\n",
    "def downsize_block(image, block_size):\n",
    "    image_size = image.shape[0]\n",
    "    block_size = int(block_size)\n",
    "    downsize = image_size//block_size\n",
    "    image = image[:downsize*block_size, :downsize*block_size]\n",
    "    image = image.reshape(downsize, block_size, downsize,\n",
    "                          block_size).mean(axis=(1, 3))\n",
    "    return image\n",
    "\n",
    "\n",
    "def denoise_projections(projections):\n",
    "    projections_zoomed = []\n",
    "\n",
    "    for projection in projections:\n",
    "        projection_zoomed_downsized = downsize_block(projection, 64)\n",
    "        projection_zoomed = zoom(\n",
    "            projection_zoomed_downsized, 64, order=4, mode='nearest')\n",
    "        # Adjust the mean of the zoomed image to match the original\n",
    "        projection_zoomed = projection_zoomed * \\\n",
    "            np.mean(projection) / np.mean(projection_zoomed)\n",
    "        projections_zoomed.append(projection_zoomed)\n",
    "\n",
    "    return projections_zoomed\n",
    "\n",
    "\n",
    "# zoom the scatter projections using the zoom fromfunction\n",
    "ggems_scatter_denoised = denoise_projections(ggems_scatter_projections)\n",
    "\n"
   ]
  },
  {
   "cell_type": "code",
   "execution_count": 3,
   "metadata": {},
   "outputs": [],
   "source": [
    "angles = phantom.angles * 180 / np.pi\n",
    "\n",
    "# Estimate the scatter at the angle opposite the detector as the fliplr of the scatter at a given angle\n",
    "ggems_scatter_denoised_flipped = [\n",
    "    np.fliplr(projection) for projection in ggems_scatter_denoised]\n",
    "ggems_scatter_opposite = [ggems_scatter_denoised_flipped[round(\n",
    "    abs(180-angle)/(360/len(angles)))] for angle in angles]"
   ]
  },
  {
   "cell_type": "code",
   "execution_count": 7,
   "metadata": {},
   "outputs": [],
   "source": [
    "# append the first half of the array fliped left to right and concatenate the two arrays\n",
    "ggems_scatter_denoised_opposite = []\n",
    "for ii, ggems_scatter in enumerate(ggems_scatter_denoised):\n",
    "    if ii < 45:\n",
    "        ggems_scatter_denoised_opposite.append(ggems_scatter_denoised[ii])\n",
    "    else:\n",
    "        ggems_scatter_denoised_opposite.append(\n",
    "            np.fliplr(ggems_scatter_denoised[ii % 45]))\n",
    "\n",
    "# append the first half of the array fliped left to right and concatenate the two arrays\n",
    "ggems_projection_denoised_opposite = []\n",
    "for ii, ggems_scatter in enumerate(ggems_primary_projections):\n",
    "    if ii < 45:\n",
    "        ggems_projection_denoised_opposite.append(\n",
    "            ggems_primary_projections[ii])\n",
    "    else:\n",
    "        ggems_projection_denoised_opposite.append(\n",
    "            np.fliplr(ggems_primary_projections[ii % 45]))"
   ]
  },
  {
   "cell_type": "code",
   "execution_count": 34,
   "metadata": {},
   "outputs": [
    {
     "name": "stdout",
     "output_type": "stream",
     "text": [
      "[2023-12-12 15:32:31,574] {colorbar.py:859} DEBUG - locator: <matplotlib.ticker.AutoLocator object at 0x7f7005bb82d0>\n",
      "[2023-12-12 15:32:31,694] {colorbar.py:859} DEBUG - locator: <matplotlib.ticker.AutoLocator object at 0x7f7005c40ed0>\n"
     ]
    }
   ],
   "source": [
    "fig = plt.figure()\n",
    "plt.subplot(321)\n",
    "controls = pli.hyperslicer(ggems_scatter_denoised,\n",
    "                           autoscale_cmap=False, cmap='turbo')\n",
    "plt.title('Scatter [Counts]')\n",
    "plt.subplot(323)\n",
    "new = pli.hyperslicer(ggems_scatter_denoised_opposite,\n",
    "                      controls=controls, autoscale_cmap=False, cmap='turbo')\n",
    "plt.title('Scatter opposite [Counts]')\n",
    "plt.subplot(322)\n",
    "new = pli.hyperslicer(ggems_projection_denoised_opposite,\n",
    "                      controls=controls, autoscale_cmap=False, cmap='turbo')\n",
    "plt.title('Projection opposite [Counts]')\n",
    "plt.subplot(324)\n",
    "new = pli.hyperslicer(ggems_primary_projections,\n",
    "                      controls=controls, autoscale_cmap=False, cmap='turbo')\n",
    "plt.title('Projection [Counts]')\n",
    "\n",
    "# Turn off all the subplot axes\n",
    "for ax in plt.gcf().axes:\n",
    "    ax.axis('off')\n",
    "# plot the difference between the scatter and the opposite scatter\n",
    "ggems_scatter_denoised_opposite = np.array(ggems_scatter_denoised_opposite)\n",
    "ggems_scatter_denoised = np.array(ggems_scatter_denoised)\n",
    "# Calculate the difference between the scatter and the opposite scatter in percentage\n",
    "ggems_scatter_difference = (\n",
    "    ggems_scatter_denoised - ggems_scatter_denoised_opposite)/np.max(ggems_scatter_denoised)*100\n",
    "\n",
    "plt.subplot(325)\n",
    "new = pli.hyperslicer(ggems_scatter_difference, autoscale_cmap=False,\n",
    "                      cmap='bwr', controls=controls, vmin=-10, vmax=10)\n",
    "plt.axis('off')\n",
    "plt.title('Scatter difference [%]')\n",
    "plt.colorbar()\n",
    "\n",
    "# plot the difference between the projection and the opposite projection\n",
    "ggems_projection_denoised_opposite = np.array(\n",
    "    ggems_projection_denoised_opposite)\n",
    "ggems_primary_projections = np.array(ggems_primary_projections)\n",
    "# Calculate the difference between the scatter and the opposite scatter in percentage\n",
    "ggems_projection_difference = (\n",
    "    ggems_primary_projections - ggems_projection_denoised_opposite)/np.max(ggems_primary_projections)*100\n",
    "\n",
    "plt.subplot(326)\n",
    "new = pli.hyperslicer(ggems_projection_difference, autoscale_cmap=False,\n",
    "                      cmap='bwr', controls=controls, vmin=-10, vmax=10)\n",
    "plt.axis('off')\n",
    "plt.title('Projection difference [%]')\n",
    "plt.colorbar()\n",
    "plt.tight_layout()"
   ]
  },
  {
   "cell_type": "code",
   "execution_count": 35,
   "metadata": {},
   "outputs": [
    {
     "name": "stdout",
     "output_type": "stream",
     "text": [
      "[2023-12-12 15:32:46,728] {animation.py:1060} INFO - Animation.save using <class 'matplotlib.animation.FFMpegWriter'>\n",
      "[2023-12-12 15:32:46,729] {animation.py:318} INFO - figure size in inches has been adjusted from 8.12 x 9.64 to 8.1 x 9.64\n",
      "[2023-12-12 15:32:46,729] {animation.py:322} DEBUG - frame size in pixels is 810 x 964\n",
      "[2023-12-12 15:32:46,730] {animation.py:338} INFO - MovieWriter._run: running command: ffmpeg -f rawvideo -vcodec rawvideo -s 810x964 -pix_fmt rgba -framerate 8.333333333333334 -i pipe: -vcodec h264 -pix_fmt yuv420p -y phantoms_ggems_analytical+denoised_opposite.mp4\n",
      "[2023-12-12 15:32:46,734] {animation.py:366} DEBUG - MovieWriter.grab_frame: Grabbing frame.\n",
      "[2023-12-12 15:32:46,850] {animation.py:366} DEBUG - MovieWriter.grab_frame: Grabbing frame.\n",
      "[2023-12-12 15:32:46,956] {animation.py:366} DEBUG - MovieWriter.grab_frame: Grabbing frame.\n",
      "[2023-12-12 15:32:47,063] {animation.py:366} DEBUG - MovieWriter.grab_frame: Grabbing frame.\n",
      "[2023-12-12 15:32:47,167] {animation.py:366} DEBUG - MovieWriter.grab_frame: Grabbing frame.\n",
      "[2023-12-12 15:32:47,274] {animation.py:366} DEBUG - MovieWriter.grab_frame: Grabbing frame.\n",
      "[2023-12-12 15:32:47,382] {animation.py:366} DEBUG - MovieWriter.grab_frame: Grabbing frame.\n",
      "[2023-12-12 15:32:47,490] {animation.py:366} DEBUG - MovieWriter.grab_frame: Grabbing frame.\n",
      "[2023-12-12 15:32:47,597] {animation.py:366} DEBUG - MovieWriter.grab_frame: Grabbing frame.\n",
      "[2023-12-12 15:32:47,704] {animation.py:366} DEBUG - MovieWriter.grab_frame: Grabbing frame.\n",
      "[2023-12-12 15:32:47,810] {animation.py:366} DEBUG - MovieWriter.grab_frame: Grabbing frame.\n",
      "[2023-12-12 15:32:47,922] {animation.py:366} DEBUG - MovieWriter.grab_frame: Grabbing frame.\n",
      "[2023-12-12 15:32:48,031] {animation.py:366} DEBUG - MovieWriter.grab_frame: Grabbing frame.\n",
      "[2023-12-12 15:32:48,140] {animation.py:366} DEBUG - MovieWriter.grab_frame: Grabbing frame.\n",
      "[2023-12-12 15:32:48,247] {animation.py:366} DEBUG - MovieWriter.grab_frame: Grabbing frame.\n",
      "[2023-12-12 15:32:48,353] {animation.py:366} DEBUG - MovieWriter.grab_frame: Grabbing frame.\n",
      "[2023-12-12 15:32:48,460] {animation.py:366} DEBUG - MovieWriter.grab_frame: Grabbing frame.\n",
      "[2023-12-12 15:32:48,569] {animation.py:366} DEBUG - MovieWriter.grab_frame: Grabbing frame.\n",
      "[2023-12-12 15:32:48,676] {animation.py:366} DEBUG - MovieWriter.grab_frame: Grabbing frame.\n",
      "[2023-12-12 15:32:48,789] {animation.py:366} DEBUG - MovieWriter.grab_frame: Grabbing frame.\n",
      "[2023-12-12 15:32:48,896] {animation.py:366} DEBUG - MovieWriter.grab_frame: Grabbing frame.\n",
      "[2023-12-12 15:32:49,004] {animation.py:366} DEBUG - MovieWriter.grab_frame: Grabbing frame.\n",
      "[2023-12-12 15:32:49,113] {animation.py:366} DEBUG - MovieWriter.grab_frame: Grabbing frame.\n",
      "[2023-12-12 15:32:49,222] {animation.py:366} DEBUG - MovieWriter.grab_frame: Grabbing frame.\n",
      "[2023-12-12 15:32:49,330] {animation.py:366} DEBUG - MovieWriter.grab_frame: Grabbing frame.\n",
      "[2023-12-12 15:32:49,436] {animation.py:366} DEBUG - MovieWriter.grab_frame: Grabbing frame.\n",
      "[2023-12-12 15:32:49,545] {animation.py:366} DEBUG - MovieWriter.grab_frame: Grabbing frame.\n",
      "[2023-12-12 15:32:49,649] {animation.py:366} DEBUG - MovieWriter.grab_frame: Grabbing frame.\n",
      "[2023-12-12 15:32:49,761] {animation.py:366} DEBUG - MovieWriter.grab_frame: Grabbing frame.\n",
      "[2023-12-12 15:32:49,867] {animation.py:366} DEBUG - MovieWriter.grab_frame: Grabbing frame.\n",
      "[2023-12-12 15:32:49,973] {animation.py:366} DEBUG - MovieWriter.grab_frame: Grabbing frame.\n",
      "[2023-12-12 15:32:50,079] {animation.py:366} DEBUG - MovieWriter.grab_frame: Grabbing frame.\n",
      "[2023-12-12 15:32:50,187] {animation.py:366} DEBUG - MovieWriter.grab_frame: Grabbing frame.\n",
      "[2023-12-12 15:32:50,294] {animation.py:366} DEBUG - MovieWriter.grab_frame: Grabbing frame.\n",
      "[2023-12-12 15:32:50,397] {animation.py:366} DEBUG - MovieWriter.grab_frame: Grabbing frame.\n",
      "[2023-12-12 15:32:50,501] {animation.py:366} DEBUG - MovieWriter.grab_frame: Grabbing frame.\n",
      "[2023-12-12 15:32:50,608] {animation.py:366} DEBUG - MovieWriter.grab_frame: Grabbing frame.\n",
      "[2023-12-12 15:32:50,712] {animation.py:366} DEBUG - MovieWriter.grab_frame: Grabbing frame.\n",
      "[2023-12-12 15:32:50,818] {animation.py:366} DEBUG - MovieWriter.grab_frame: Grabbing frame.\n",
      "[2023-12-12 15:32:50,922] {animation.py:366} DEBUG - MovieWriter.grab_frame: Grabbing frame.\n",
      "[2023-12-12 15:32:51,026] {animation.py:366} DEBUG - MovieWriter.grab_frame: Grabbing frame.\n",
      "[2023-12-12 15:32:51,130] {animation.py:366} DEBUG - MovieWriter.grab_frame: Grabbing frame.\n",
      "[2023-12-12 15:32:51,233] {animation.py:366} DEBUG - MovieWriter.grab_frame: Grabbing frame.\n",
      "[2023-12-12 15:32:51,341] {animation.py:366} DEBUG - MovieWriter.grab_frame: Grabbing frame.\n",
      "[2023-12-12 15:32:51,446] {animation.py:366} DEBUG - MovieWriter.grab_frame: Grabbing frame.\n",
      "[2023-12-12 15:32:51,552] {animation.py:366} DEBUG - MovieWriter.grab_frame: Grabbing frame.\n",
      "[2023-12-12 15:32:51,658] {animation.py:366} DEBUG - MovieWriter.grab_frame: Grabbing frame.\n",
      "[2023-12-12 15:32:51,769] {animation.py:366} DEBUG - MovieWriter.grab_frame: Grabbing frame.\n",
      "[2023-12-12 15:32:51,879] {animation.py:366} DEBUG - MovieWriter.grab_frame: Grabbing frame.\n",
      "[2023-12-12 15:32:51,984] {animation.py:366} DEBUG - MovieWriter.grab_frame: Grabbing frame.\n",
      "[2023-12-12 15:32:52,092] {animation.py:366} DEBUG - MovieWriter.grab_frame: Grabbing frame.\n",
      "[2023-12-12 15:32:52,201] {animation.py:366} DEBUG - MovieWriter.grab_frame: Grabbing frame.\n",
      "[2023-12-12 15:32:52,307] {animation.py:366} DEBUG - MovieWriter.grab_frame: Grabbing frame.\n",
      "[2023-12-12 15:32:52,421] {animation.py:366} DEBUG - MovieWriter.grab_frame: Grabbing frame.\n",
      "[2023-12-12 15:32:52,528] {animation.py:366} DEBUG - MovieWriter.grab_frame: Grabbing frame.\n",
      "[2023-12-12 15:32:52,635] {animation.py:366} DEBUG - MovieWriter.grab_frame: Grabbing frame.\n",
      "[2023-12-12 15:32:52,744] {animation.py:366} DEBUG - MovieWriter.grab_frame: Grabbing frame.\n",
      "[2023-12-12 15:32:52,859] {animation.py:366} DEBUG - MovieWriter.grab_frame: Grabbing frame.\n",
      "[2023-12-12 15:32:52,968] {animation.py:366} DEBUG - MovieWriter.grab_frame: Grabbing frame.\n",
      "[2023-12-12 15:32:53,075] {animation.py:366} DEBUG - MovieWriter.grab_frame: Grabbing frame.\n",
      "[2023-12-12 15:32:53,183] {animation.py:366} DEBUG - MovieWriter.grab_frame: Grabbing frame.\n",
      "[2023-12-12 15:32:53,289] {animation.py:366} DEBUG - MovieWriter.grab_frame: Grabbing frame.\n",
      "[2023-12-12 15:32:53,396] {animation.py:366} DEBUG - MovieWriter.grab_frame: Grabbing frame.\n",
      "[2023-12-12 15:32:53,502] {animation.py:366} DEBUG - MovieWriter.grab_frame: Grabbing frame.\n",
      "[2023-12-12 15:32:53,617] {animation.py:366} DEBUG - MovieWriter.grab_frame: Grabbing frame.\n",
      "[2023-12-12 15:32:53,721] {animation.py:366} DEBUG - MovieWriter.grab_frame: Grabbing frame.\n",
      "[2023-12-12 15:32:53,829] {animation.py:366} DEBUG - MovieWriter.grab_frame: Grabbing frame.\n",
      "[2023-12-12 15:32:53,935] {animation.py:366} DEBUG - MovieWriter.grab_frame: Grabbing frame.\n",
      "[2023-12-12 15:32:54,055] {animation.py:366} DEBUG - MovieWriter.grab_frame: Grabbing frame.\n",
      "[2023-12-12 15:32:54,162] {animation.py:366} DEBUG - MovieWriter.grab_frame: Grabbing frame.\n",
      "[2023-12-12 15:32:54,272] {animation.py:366} DEBUG - MovieWriter.grab_frame: Grabbing frame.\n",
      "[2023-12-12 15:32:54,379] {animation.py:366} DEBUG - MovieWriter.grab_frame: Grabbing frame.\n",
      "[2023-12-12 15:32:54,483] {animation.py:366} DEBUG - MovieWriter.grab_frame: Grabbing frame.\n",
      "[2023-12-12 15:32:54,585] {animation.py:366} DEBUG - MovieWriter.grab_frame: Grabbing frame.\n",
      "[2023-12-12 15:32:54,688] {animation.py:366} DEBUG - MovieWriter.grab_frame: Grabbing frame.\n",
      "[2023-12-12 15:32:54,793] {animation.py:366} DEBUG - MovieWriter.grab_frame: Grabbing frame.\n",
      "[2023-12-12 15:32:54,900] {animation.py:366} DEBUG - MovieWriter.grab_frame: Grabbing frame.\n",
      "[2023-12-12 15:32:55,016] {animation.py:366} DEBUG - MovieWriter.grab_frame: Grabbing frame.\n",
      "[2023-12-12 15:32:55,120] {animation.py:366} DEBUG - MovieWriter.grab_frame: Grabbing frame.\n",
      "[2023-12-12 15:32:55,223] {animation.py:366} DEBUG - MovieWriter.grab_frame: Grabbing frame.\n",
      "[2023-12-12 15:32:55,330] {animation.py:366} DEBUG - MovieWriter.grab_frame: Grabbing frame.\n",
      "[2023-12-12 15:32:55,435] {animation.py:366} DEBUG - MovieWriter.grab_frame: Grabbing frame.\n",
      "[2023-12-12 15:32:55,539] {animation.py:366} DEBUG - MovieWriter.grab_frame: Grabbing frame.\n",
      "[2023-12-12 15:32:55,647] {animation.py:366} DEBUG - MovieWriter.grab_frame: Grabbing frame.\n",
      "[2023-12-12 15:32:55,751] {animation.py:366} DEBUG - MovieWriter.grab_frame: Grabbing frame.\n",
      "[2023-12-12 15:32:55,856] {animation.py:366} DEBUG - MovieWriter.grab_frame: Grabbing frame.\n",
      "[2023-12-12 15:32:55,962] {animation.py:366} DEBUG - MovieWriter.grab_frame: Grabbing frame.\n",
      "[2023-12-12 15:32:56,070] {animation.py:366} DEBUG - MovieWriter.grab_frame: Grabbing frame.\n",
      "[2023-12-12 15:32:56,176] {animation.py:366} DEBUG - MovieWriter.grab_frame: Grabbing frame.\n",
      "[2023-12-12 15:32:56,443] {animation.py:356} DEBUG - MovieWriter stderr:\n",
      "ffmpeg version 4.2.2 Copyright (c) 2000-2019 the FFmpeg developers\n",
      "  built with gcc 7.3.0 (crosstool-NG 1.23.0.449-a04d0)\n",
      "  configuration: --prefix=/tmp/build/80754af9/ffmpeg_1587154242452/_h_env_placehold_placehold_placehold_placehold_placehold_placehold_placehold_placehold_placehold_placehold_placehold_placehold_placehold_placehold_placehold_placehold_placehold_placehold_placehold_placehold_placeho --cc=/tmp/build/80754af9/ffmpeg_1587154242452/_build_env/bin/x86_64-conda_cos6-linux-gnu-cc --disable-doc --enable-avresample --enable-gmp --enable-hardcoded-tables --enable-libfreetype --enable-libvpx --enable-pthreads --enable-libopus --enable-postproc --enable-pic --enable-pthreads --enable-shared --enable-static --enable-version3 --enable-zlib --enable-libmp3lame --disable-nonfree --enable-gpl --enable-gnutls --disable-openssl --enable-libopenh264 --enable-libx264\n",
      "  libavutil      56. 31.100 / 56. 31.100\n",
      "  libavcodec     58. 54.100 / 58. 54.100\n",
      "  libavformat    58. 29.100 / 58. 29.100\n",
      "  libavdevice    58.  8.100 / 58.  8.100\n",
      "  libavfilter     7. 57.100 /  7. 57.100\n",
      "  libavresample   4.  0.  0 /  4.  0.  0\n",
      "  libswscale      5.  5.100 /  5.  5.100\n",
      "  libswresample   3.  5.100 /  3.  5.100\n",
      "  libpostproc    55.  5.100 / 55.  5.100\n",
      "Input #0, rawvideo, from 'pipe:':\n",
      "  Duration: N/A, start: 0.000000, bitrate: 208224 kb/s\n",
      "    Stream #0:0: Video: rawvideo (RGBA / 0x41424752), rgba, 810x964, 208224 kb/s, 8.33 tbr, 8.33 tbn, 8.33 tbc\n",
      "Stream mapping:\n",
      "  Stream #0:0 -> #0:0 (rawvideo (native) -> h264 (libx264))\n",
      "[swscaler @ 0x562b379fb080] Warning: data is not aligned! This can lead to a speed loss\n",
      "[libx264 @ 0x562b379e9100] using cpu capabilities: MMX2 SSE2Fast SSSE3 SSE4.2 AVX FMA3 BMI2 AVX2 AVX512\n",
      "[libx264 @ 0x562b379e9100] profile High, level 3.1, 4:2:0, 8-bit\n",
      "[libx264 @ 0x562b379e9100] 264 - core 157 - H.264/MPEG-4 AVC codec - Copyleft 2003-2018 - http://www.videolan.org/x264.html - options: cabac=1 ref=3 deblock=1:0:0 analyse=0x3:0x113 me=hex subme=7 psy=1 psy_rd=1.00:0.00 mixed_ref=1 me_range=16 chroma_me=1 trellis=1 8x8dct=1 cqm=0 deadzone=21,11 fast_pskip=1 chroma_qp_offset=-2 threads=24 lookahead_threads=4 sliced_threads=0 nr=0 decimate=1 interlaced=0 bluray_compat=0 constrained_intra=0 bframes=3 b_pyramid=2 b_adapt=1 b_bias=0 direct=1 weightb=1 open_gop=0 weightp=2 keyint=250 keyint_min=8 scenecut=40 intra_refresh=0 rc_lookahead=40 rc=crf mbtree=1 crf=23.0 qcomp=0.60 qpmin=0 qpmax=69 qpstep=4 ip_ratio=1.40 aq=1:1.00\n",
      "Output #0, mp4, to 'phantoms_ggems_analytical+denoised_opposite.mp4':\n",
      "  Metadata:\n",
      "    encoder         : Lavf58.29.100\n",
      "    Stream #0:0: Video: h264 (libx264) (avc1 / 0x31637661), yuv420p, 810x964, q=-1--1, 8.33 fps, 12800 tbn, 8.33 tbc\n",
      "    Metadata:\n",
      "      encoder         : Lavc58.54.100 libx264\n",
      "    Side data:\n",
      "      cpb: bitrate max/min/avg: 0/0/0 buffer size: 0 vbv_delay: -1\n",
      "frame=    7 fps=0.0 q=0.0 size=       0kB time=00:00:00.00 bitrate=N/A speed=   0x    \n",
      "frame=   12 fps= 11 q=0.0 size=       0kB time=00:00:00.00 bitrate=N/A speed=   0x    \n",
      "frame=   17 fps= 11 q=0.0 size=       0kB time=00:00:00.00 bitrate=N/A speed=   0x    \n",
      "frame=   22 fps= 10 q=0.0 size=       0kB time=00:00:00.00 bitrate=N/A speed=   0x    \n",
      "frame=   27 fps= 10 q=0.0 size=       0kB time=00:00:00.00 bitrate=N/A speed=   0x    \n",
      "frame=   32 fps=9.9 q=0.0 size=       0kB time=00:00:00.00 bitrate=N/A speed=   0x    \n",
      "frame=   37 fps=9.8 q=0.0 size=       0kB time=00:00:00.00 bitrate=N/A speed=   0x    \n",
      "frame=   42 fps=9.8 q=0.0 size=       0kB time=00:00:00.00 bitrate=N/A speed=   0x    \n",
      "frame=   47 fps=9.8 q=0.0 size=       0kB time=00:00:00.00 bitrate=N/A speed=   0x    \n",
      "frame=   52 fps=9.7 q=0.0 size=       0kB time=00:00:00.00 bitrate=N/A speed=   0x    \n",
      "frame=   57 fps=9.7 q=0.0 size=       0kB time=00:00:00.00 bitrate=N/A speed=   0x    \n",
      "frame=   62 fps=9.6 q=0.0 size=       0kB time=00:00:00.00 bitrate=N/A speed=   0x    \n",
      "frame=   67 fps=9.6 q=0.0 size=       0kB time=00:00:00.00 bitrate=N/A speed=   0x    \n",
      "frame=   72 fps=9.6 q=25.0 size=       0kB time=00:00:00.12 bitrate=   3.2kbits/s speed=0.0159x    \n",
      "frame=   77 fps=9.6 q=25.0 size=       0kB time=00:00:00.72 bitrate=   0.5kbits/s speed=0.0894x    \n",
      "frame=   82 fps=9.5 q=25.0 size=       0kB time=00:00:01.32 bitrate=   0.3kbits/s speed=0.154x    \n",
      "frame=   87 fps=9.5 q=25.0 size=       0kB time=00:00:01.92 bitrate=   0.2kbits/s speed=0.211x    \n",
      "frame=   89 fps=9.3 q=-1.0 Lsize=     865kB time=00:00:10.32 bitrate= 686.4kbits/s speed=1.08x    \n",
      "video:863kB audio:0kB subtitle:0kB other streams:0kB global headers:0kB muxing overhead: 0.215611%\n",
      "[libx264 @ 0x562b379e9100] frame I:1     Avg QP:19.54  size: 33675\n",
      "[libx264 @ 0x562b379e9100] frame P:22    Avg QP:21.23  size: 16794\n",
      "[libx264 @ 0x562b379e9100] frame B:66    Avg QP:23.04  size:  7268\n",
      "[libx264 @ 0x562b379e9100] consecutive B-frames:  1.1%  0.0%  0.0% 98.9%\n",
      "[libx264 @ 0x562b379e9100] mb I  I16..4: 17.6% 67.5% 14.9%\n",
      "[libx264 @ 0x562b379e9100] mb P  I16..4:  6.9%  7.1%  2.0%  P16..4:  9.3%  7.8%  4.2%  0.0%  0.0%    skip:62.6%\n",
      "[libx264 @ 0x562b379e9100] mb B  I16..4:  1.8%  1.9%  0.2%  B16..8: 16.5%  4.3%  0.9%  direct: 3.2%  skip:71.2%  L0:40.0% L1:43.3% BI:16.8%\n",
      "[libx264 @ 0x562b379e9100] 8x8 transform intra:49.4% inter:72.1%\n",
      "[libx264 @ 0x562b379e9100] coded y,uvDC,uvAC intra: 33.0% 76.6% 37.7% inter: 7.6% 12.4% 3.6%\n",
      "[libx264 @ 0x562b379e9100] i16 v,h,dc,p: 15% 24%  1% 60%\n",
      "[libx264 @ 0x562b379e9100] i8 v,h,dc,ddl,ddr,vr,hd,vl,hu: 21% 12% 28%  7%  8%  7%  8%  5%  4%\n",
      "[libx264 @ 0x562b379e9100] i4 v,h,dc,ddl,ddr,vr,hd,vl,hu: 29% 24% 19%  4%  5%  6%  4%  5%  3%\n",
      "[libx264 @ 0x562b379e9100] i8c dc,h,v,p: 27% 20% 18% 35%\n",
      "[libx264 @ 0x562b379e9100] Weighted P-Frames: Y:0.0% UV:0.0%\n",
      "[libx264 @ 0x562b379e9100] ref P L0: 62.9% 11.3% 17.7%  8.1%\n",
      "[libx264 @ 0x562b379e9100] ref B L0: 89.9%  8.1%  2.0%\n",
      "[libx264 @ 0x562b379e9100] ref B L1: 96.5%  3.5%\n",
      "[libx264 @ 0x562b379e9100] kb/s:661.32\n",
      "\n"
     ]
    }
   ],
   "source": [
    "anim = controls.save_animation(\n",
    "    \"phantoms_ggems_analytical+denoised_opposite.mp4\", fig, \"axis0\", interval=120)"
   ]
  },
  {
   "cell_type": "code",
   "execution_count": 98,
   "metadata": {},
   "outputs": [],
   "source": [
    "from scipy import ndimage\n",
    "\n",
    "\n",
    "def interpolate_images(images, new_depth):\n",
    "    # Calculate the zoom factor\n",
    "    zoom_factor = new_depth / images.shape[2]\n",
    "\n",
    "    # Use scipy.ndimage.zoom to interpolate the images\n",
    "    interpolated_images = ndimage.zoom(images, (4, 1, 1), order=1)\n",
    "\n",
    "    return interpolated_images\n",
    "\n",
    "\n",
    "def interpolate_each_pixel(image, z0, z1):\n",
    "    # loop over the pixels and interpolate the images\n",
    "    image_large = np.zeros((len(z1), image.shape[1], image.shape[2]))\n",
    "    for ii in range(image.shape[1]):\n",
    "        for jj in range(image.shape[2]):\n",
    "            image_large[:, ii, jj] = np.interp(z1, z0, image[:, ii, jj])\n",
    "\n",
    "    return image_large\n",
    "\n",
    "\n",
    "def normalize_mean_and_std(array1,array2):\n",
    "    array1 = array1 - np.mean(array1)\n",
    "    # array1 = array1 * np.std(array2) / np.std(array1)\n",
    "    array1 = array1 + np.mean(array2)\n",
    "    return array1\n",
    "\n",
    "ggems_scatter_norm = normalize_mean_and_std(ggems_scatter_denoised, ggems_scatter_projections)\n",
    "\n",
    "# Test the function\n",
    "images = np.array(ggems_scatter_norm[::4])\n",
    "z0 = np.arange(0, 90, 4)\n",
    "z1 = np.arange(0, 90, 1)\n",
    "\n",
    "interpolated_images = interpolate_each_pixel(images, z0, z1)\n",
    "# interpolated_images = interpolate_images(images, 2)"
   ]
  },
  {
   "cell_type": "code",
   "execution_count": 107,
   "metadata": {},
   "outputs": [
    {
     "name": "stderr",
     "output_type": "stream",
     "text": [
      "/tmp/ipykernel_6741/732142513.py:12: RuntimeWarning: Mean of empty slice\n",
      "  plt.axhline(y=np.nanmean(np.nanmean(error, axis=(1, 2))), color='r', linestyle='-')\n",
      "/tmp/ipykernel_6741/732142513.py:14: RuntimeWarning: Mean of empty slice\n",
      "  plt.text(0, np.nanmean(np.nanmean(error, axis=(1, 2))), 'mean = {:.2f}'.format(np.nanmean(np.nanmean(error, axis=(1, 2)))))\n"
     ]
    }
   ],
   "source": [
    "# Calculate the error between the interpolated images and the original images\n",
    "error = np.abs(interpolated_images - np.array(ggems_scatter_norm)\n",
    "               )/np.max(np.array(ggems_scatter_norm))*100\n",
    "\n",
    "plt.figure()\n",
    "plt.plot(np.mean(error, axis=(1, 2)),'b*')\n",
    "plt.title('Mean error [%]')\n",
    "plt.xlabel('Angle')\n",
    "plt.ylabel('RMSE [%]')\n",
    "# add a red line for the mean of the points that are not zero\n",
    "error[error == 0] = np.nan\n",
    "plt.axhline(y=np.nanmean(np.nanmean(error, axis=(1, 2))), color='r', linestyle='-')\n",
    "# label the line with it's value\n",
    "plt.text(0, np.nanmean(np.nanmean(error, axis=(1, 2))), 'mean = {:.2f}'.format(np.nanmean(np.nanmean(error, axis=(1, 2)))))\n",
    "\n",
    "plt.savefig('ggems_scatter_interpolation_error.png', dpi=300)"
   ]
  },
  {
   "cell_type": "code",
   "execution_count": 100,
   "metadata": {},
   "outputs": [
    {
     "name": "stdout",
     "output_type": "stream",
     "text": [
      "[2023-12-12 16:55:48,886] {colorbar.py:859} DEBUG - locator: <matplotlib.ticker.AutoLocator object at 0x7f7000536d50>\n"
     ]
    }
   ],
   "source": [
    "fig = plt.figure(figsize=(10, 10))\n",
    "plt.subplot(221)\n",
    "controls = pli.hyperslicer(ggems_scatter_projections,\n",
    "                           autoscale_cmap=False, cmap='turbo', play_buttons=True,\n",
    "                           vmin=np.percentile(interpolated_images, 1), vmax=np.percentile(interpolated_images, 99))\n",
    "plt.title('Scatter [Counts]')\n",
    "plt.subplot(223)\n",
    "new = pli.hyperslicer(interpolated_images, controls=controls, autoscale_cmap=False, cmap='turbo',\n",
    "                      vmin=np.percentile(interpolated_images, 1), vmax=np.percentile(interpolated_images, 99))\n",
    "plt.title('Scatter interpolated [Counts]')\n",
    "plt.subplot(222)\n",
    "new = pli.hyperslicer(ggems_primary_projections,\n",
    "                      controls=controls, autoscale_cmap=False, cmap='turbo')\n",
    "plt.title('Projection [Counts]')\n",
    "\n",
    "# Turn off all the subplot axes\n",
    "for ax in plt.gcf().axes:\n",
    "    ax.axis('off')\n",
    "\n",
    "# Calculate the difference between the scatter and the interpolated scatter in percentage\n",
    "ggems_scatter_difference = (\n",
    "    ggems_scatter_projections - interpolated_images)/(ggems_scatter_norm)*100\n",
    "\n",
    "ggems_scatter_diff_small = []\n",
    "for ii in range(len(ggems_scatter_difference)):\n",
    "    ggems_scatter_diff_small.append(\n",
    "        downsize_block(ggems_scatter_difference[ii], 32))\n",
    "\n",
    "plt.subplot(224)\n",
    "new = pli.hyperslicer(ggems_scatter_diff_small, autoscale_cmap=False,\n",
    "                      cmap='bwr', controls=controls, vmin=-5, vmax=5)\n",
    "plt.axis('off')\n",
    "plt.title('Scatter difference [%]')\n",
    "plt.colorbar()\n",
    "plt.tight_layout()"
   ]
  },
  {
   "cell_type": "code",
   "execution_count": null,
   "metadata": {},
   "outputs": [],
   "source": []
  },
  {
   "cell_type": "code",
   "execution_count": 101,
   "metadata": {},
   "outputs": [
    {
     "name": "stdout",
     "output_type": "stream",
     "text": [
      "[2023-12-12 16:58:25,277] {animation.py:1060} INFO - Animation.save using <class 'matplotlib.animation.FFMpegWriter'>\n",
      "[2023-12-12 16:58:25,277] {animation.py:322} DEBUG - frame size in pixels is 1000 x 964\n",
      "[2023-12-12 16:58:25,278] {animation.py:338} INFO - MovieWriter._run: running command: ffmpeg -f rawvideo -vcodec rawvideo -s 1000x964 -pix_fmt rgba -framerate 8.333333333333334 -i pipe: -vcodec h264 -pix_fmt yuv420p -y 'phantoms_ggems_analytical+denoised_interpolated_15 projections.mp4'\n",
      "[2023-12-12 16:58:25,280] {animation.py:366} DEBUG - MovieWriter.grab_frame: Grabbing frame.\n",
      "[2023-12-12 16:58:25,366] {animation.py:366} DEBUG - MovieWriter.grab_frame: Grabbing frame.\n",
      "[2023-12-12 16:58:25,448] {animation.py:366} DEBUG - MovieWriter.grab_frame: Grabbing frame.\n",
      "[2023-12-12 16:58:25,531] {animation.py:366} DEBUG - MovieWriter.grab_frame: Grabbing frame.\n",
      "[2023-12-12 16:58:25,613] {animation.py:366} DEBUG - MovieWriter.grab_frame: Grabbing frame.\n",
      "[2023-12-12 16:58:25,696] {animation.py:366} DEBUG - MovieWriter.grab_frame: Grabbing frame.\n",
      "[2023-12-12 16:58:25,778] {animation.py:366} DEBUG - MovieWriter.grab_frame: Grabbing frame.\n",
      "[2023-12-12 16:58:25,863] {animation.py:366} DEBUG - MovieWriter.grab_frame: Grabbing frame.\n",
      "[2023-12-12 16:58:25,944] {animation.py:366} DEBUG - MovieWriter.grab_frame: Grabbing frame.\n",
      "[2023-12-12 16:58:26,026] {animation.py:366} DEBUG - MovieWriter.grab_frame: Grabbing frame.\n",
      "[2023-12-12 16:58:26,109] {animation.py:366} DEBUG - MovieWriter.grab_frame: Grabbing frame.\n",
      "[2023-12-12 16:58:26,190] {animation.py:366} DEBUG - MovieWriter.grab_frame: Grabbing frame.\n",
      "[2023-12-12 16:58:26,272] {animation.py:366} DEBUG - MovieWriter.grab_frame: Grabbing frame.\n",
      "[2023-12-12 16:58:26,352] {animation.py:366} DEBUG - MovieWriter.grab_frame: Grabbing frame.\n",
      "[2023-12-12 16:58:26,433] {animation.py:366} DEBUG - MovieWriter.grab_frame: Grabbing frame.\n",
      "[2023-12-12 16:58:26,521] {animation.py:366} DEBUG - MovieWriter.grab_frame: Grabbing frame.\n",
      "[2023-12-12 16:58:26,603] {animation.py:366} DEBUG - MovieWriter.grab_frame: Grabbing frame.\n",
      "[2023-12-12 16:58:26,686] {animation.py:366} DEBUG - MovieWriter.grab_frame: Grabbing frame.\n",
      "[2023-12-12 16:58:26,769] {animation.py:366} DEBUG - MovieWriter.grab_frame: Grabbing frame.\n",
      "[2023-12-12 16:58:26,851] {animation.py:366} DEBUG - MovieWriter.grab_frame: Grabbing frame.\n",
      "[2023-12-12 16:58:26,933] {animation.py:366} DEBUG - MovieWriter.grab_frame: Grabbing frame.\n",
      "[2023-12-12 16:58:27,016] {animation.py:366} DEBUG - MovieWriter.grab_frame: Grabbing frame.\n",
      "[2023-12-12 16:58:27,098] {animation.py:366} DEBUG - MovieWriter.grab_frame: Grabbing frame.\n",
      "[2023-12-12 16:58:27,182] {animation.py:366} DEBUG - MovieWriter.grab_frame: Grabbing frame.\n",
      "[2023-12-12 16:58:27,266] {animation.py:366} DEBUG - MovieWriter.grab_frame: Grabbing frame.\n",
      "[2023-12-12 16:58:27,349] {animation.py:366} DEBUG - MovieWriter.grab_frame: Grabbing frame.\n",
      "[2023-12-12 16:58:27,432] {animation.py:366} DEBUG - MovieWriter.grab_frame: Grabbing frame.\n",
      "[2023-12-12 16:58:27,515] {animation.py:366} DEBUG - MovieWriter.grab_frame: Grabbing frame.\n",
      "[2023-12-12 16:58:27,595] {animation.py:366} DEBUG - MovieWriter.grab_frame: Grabbing frame.\n",
      "[2023-12-12 16:58:27,676] {animation.py:366} DEBUG - MovieWriter.grab_frame: Grabbing frame.\n",
      "[2023-12-12 16:58:27,755] {animation.py:366} DEBUG - MovieWriter.grab_frame: Grabbing frame.\n",
      "[2023-12-12 16:58:27,833] {animation.py:366} DEBUG - MovieWriter.grab_frame: Grabbing frame.\n",
      "[2023-12-12 16:58:27,911] {animation.py:366} DEBUG - MovieWriter.grab_frame: Grabbing frame.\n",
      "[2023-12-12 16:58:27,996] {animation.py:366} DEBUG - MovieWriter.grab_frame: Grabbing frame.\n",
      "[2023-12-12 16:58:28,076] {animation.py:366} DEBUG - MovieWriter.grab_frame: Grabbing frame.\n",
      "[2023-12-12 16:58:28,155] {animation.py:366} DEBUG - MovieWriter.grab_frame: Grabbing frame.\n",
      "[2023-12-12 16:58:28,237] {animation.py:366} DEBUG - MovieWriter.grab_frame: Grabbing frame.\n",
      "[2023-12-12 16:58:28,320] {animation.py:366} DEBUG - MovieWriter.grab_frame: Grabbing frame.\n",
      "[2023-12-12 16:58:28,401] {animation.py:366} DEBUG - MovieWriter.grab_frame: Grabbing frame.\n",
      "[2023-12-12 16:58:28,480] {animation.py:366} DEBUG - MovieWriter.grab_frame: Grabbing frame.\n",
      "[2023-12-12 16:58:28,561] {animation.py:366} DEBUG - MovieWriter.grab_frame: Grabbing frame.\n",
      "[2023-12-12 16:58:28,647] {animation.py:366} DEBUG - MovieWriter.grab_frame: Grabbing frame.\n",
      "[2023-12-12 16:58:28,731] {animation.py:366} DEBUG - MovieWriter.grab_frame: Grabbing frame.\n",
      "[2023-12-12 16:58:28,814] {animation.py:366} DEBUG - MovieWriter.grab_frame: Grabbing frame.\n",
      "[2023-12-12 16:58:28,896] {animation.py:366} DEBUG - MovieWriter.grab_frame: Grabbing frame.\n",
      "[2023-12-12 16:58:28,979] {animation.py:366} DEBUG - MovieWriter.grab_frame: Grabbing frame.\n",
      "[2023-12-12 16:58:29,062] {animation.py:366} DEBUG - MovieWriter.grab_frame: Grabbing frame.\n",
      "[2023-12-12 16:58:29,145] {animation.py:366} DEBUG - MovieWriter.grab_frame: Grabbing frame.\n",
      "[2023-12-12 16:58:29,241] {animation.py:366} DEBUG - MovieWriter.grab_frame: Grabbing frame.\n",
      "[2023-12-12 16:58:29,322] {animation.py:366} DEBUG - MovieWriter.grab_frame: Grabbing frame.\n",
      "[2023-12-12 16:58:29,405] {animation.py:366} DEBUG - MovieWriter.grab_frame: Grabbing frame.\n",
      "[2023-12-12 16:58:29,487] {animation.py:366} DEBUG - MovieWriter.grab_frame: Grabbing frame.\n",
      "[2023-12-12 16:58:29,569] {animation.py:366} DEBUG - MovieWriter.grab_frame: Grabbing frame.\n",
      "[2023-12-12 16:58:29,651] {animation.py:366} DEBUG - MovieWriter.grab_frame: Grabbing frame.\n",
      "[2023-12-12 16:58:29,729] {animation.py:366} DEBUG - MovieWriter.grab_frame: Grabbing frame.\n",
      "[2023-12-12 16:58:29,809] {animation.py:366} DEBUG - MovieWriter.grab_frame: Grabbing frame.\n",
      "[2023-12-12 16:58:29,891] {animation.py:366} DEBUG - MovieWriter.grab_frame: Grabbing frame.\n",
      "[2023-12-12 16:58:29,973] {animation.py:366} DEBUG - MovieWriter.grab_frame: Grabbing frame.\n",
      "[2023-12-12 16:58:30,051] {animation.py:366} DEBUG - MovieWriter.grab_frame: Grabbing frame.\n",
      "[2023-12-12 16:58:30,152] {animation.py:366} DEBUG - MovieWriter.grab_frame: Grabbing frame.\n",
      "[2023-12-12 16:58:30,236] {animation.py:366} DEBUG - MovieWriter.grab_frame: Grabbing frame.\n",
      "[2023-12-12 16:58:30,320] {animation.py:366} DEBUG - MovieWriter.grab_frame: Grabbing frame.\n",
      "[2023-12-12 16:58:30,425] {animation.py:366} DEBUG - MovieWriter.grab_frame: Grabbing frame.\n",
      "[2023-12-12 16:58:30,505] {animation.py:366} DEBUG - MovieWriter.grab_frame: Grabbing frame.\n",
      "[2023-12-12 16:58:30,585] {animation.py:366} DEBUG - MovieWriter.grab_frame: Grabbing frame.\n",
      "[2023-12-12 16:58:30,669] {animation.py:366} DEBUG - MovieWriter.grab_frame: Grabbing frame.\n",
      "[2023-12-12 16:58:30,751] {animation.py:366} DEBUG - MovieWriter.grab_frame: Grabbing frame.\n",
      "[2023-12-12 16:58:30,832] {animation.py:366} DEBUG - MovieWriter.grab_frame: Grabbing frame.\n",
      "[2023-12-12 16:58:30,913] {animation.py:366} DEBUG - MovieWriter.grab_frame: Grabbing frame.\n",
      "[2023-12-12 16:58:31,000] {animation.py:366} DEBUG - MovieWriter.grab_frame: Grabbing frame.\n",
      "[2023-12-12 16:58:31,081] {animation.py:366} DEBUG - MovieWriter.grab_frame: Grabbing frame.\n",
      "[2023-12-12 16:58:31,161] {animation.py:366} DEBUG - MovieWriter.grab_frame: Grabbing frame.\n",
      "[2023-12-12 16:58:31,243] {animation.py:366} DEBUG - MovieWriter.grab_frame: Grabbing frame.\n",
      "[2023-12-12 16:58:31,325] {animation.py:366} DEBUG - MovieWriter.grab_frame: Grabbing frame.\n",
      "[2023-12-12 16:58:31,427] {animation.py:366} DEBUG - MovieWriter.grab_frame: Grabbing frame.\n",
      "[2023-12-12 16:58:31,506] {animation.py:366} DEBUG - MovieWriter.grab_frame: Grabbing frame.\n",
      "[2023-12-12 16:58:31,585] {animation.py:366} DEBUG - MovieWriter.grab_frame: Grabbing frame.\n",
      "[2023-12-12 16:58:31,666] {animation.py:366} DEBUG - MovieWriter.grab_frame: Grabbing frame.\n",
      "[2023-12-12 16:58:31,746] {animation.py:366} DEBUG - MovieWriter.grab_frame: Grabbing frame.\n",
      "[2023-12-12 16:58:31,827] {animation.py:366} DEBUG - MovieWriter.grab_frame: Grabbing frame.\n",
      "[2023-12-12 16:58:31,907] {animation.py:366} DEBUG - MovieWriter.grab_frame: Grabbing frame.\n",
      "[2023-12-12 16:58:31,988] {animation.py:366} DEBUG - MovieWriter.grab_frame: Grabbing frame.\n",
      "[2023-12-12 16:58:32,068] {animation.py:366} DEBUG - MovieWriter.grab_frame: Grabbing frame.\n",
      "[2023-12-12 16:58:32,168] {animation.py:366} DEBUG - MovieWriter.grab_frame: Grabbing frame.\n",
      "[2023-12-12 16:58:32,249] {animation.py:366} DEBUG - MovieWriter.grab_frame: Grabbing frame.\n",
      "[2023-12-12 16:58:32,331] {animation.py:366} DEBUG - MovieWriter.grab_frame: Grabbing frame.\n",
      "[2023-12-12 16:58:32,439] {animation.py:366} DEBUG - MovieWriter.grab_frame: Grabbing frame.\n",
      "[2023-12-12 16:58:32,520] {animation.py:366} DEBUG - MovieWriter.grab_frame: Grabbing frame.\n",
      "[2023-12-12 16:58:32,602] {animation.py:366} DEBUG - MovieWriter.grab_frame: Grabbing frame.\n",
      "[2023-12-12 16:58:33,053] {animation.py:356} DEBUG - MovieWriter stderr:\n",
      "ffmpeg version 4.2.2 Copyright (c) 2000-2019 the FFmpeg developers\n",
      "  built with gcc 7.3.0 (crosstool-NG 1.23.0.449-a04d0)\n",
      "  configuration: --prefix=/tmp/build/80754af9/ffmpeg_1587154242452/_h_env_placehold_placehold_placehold_placehold_placehold_placehold_placehold_placehold_placehold_placehold_placehold_placehold_placehold_placehold_placehold_placehold_placehold_placehold_placehold_placehold_placeho --cc=/tmp/build/80754af9/ffmpeg_1587154242452/_build_env/bin/x86_64-conda_cos6-linux-gnu-cc --disable-doc --enable-avresample --enable-gmp --enable-hardcoded-tables --enable-libfreetype --enable-libvpx --enable-pthreads --enable-libopus --enable-postproc --enable-pic --enable-pthreads --enable-shared --enable-static --enable-version3 --enable-zlib --enable-libmp3lame --disable-nonfree --enable-gpl --enable-gnutls --disable-openssl --enable-libopenh264 --enable-libx264\n",
      "  libavutil      56. 31.100 / 56. 31.100\n",
      "  libavcodec     58. 54.100 / 58. 54.100\n",
      "  libavformat    58. 29.100 / 58. 29.100\n",
      "  libavdevice    58.  8.100 / 58.  8.100\n",
      "  libavfilter     7. 57.100 /  7. 57.100\n",
      "  libavresample   4.  0.  0 /  4.  0.  0\n",
      "  libswscale      5.  5.100 /  5.  5.100\n",
      "  libswresample   3.  5.100 /  3.  5.100\n",
      "  libpostproc    55.  5.100 / 55.  5.100\n",
      "Input #0, rawvideo, from 'pipe:':\n",
      "  Duration: N/A, start: 0.000000, bitrate: 257066 kb/s\n",
      "    Stream #0:0: Video: rawvideo (RGBA / 0x41424752), rgba, 1000x964, 257066 kb/s, 8.33 tbr, 8.33 tbn, 8.33 tbc\n",
      "Stream mapping:\n",
      "  Stream #0:0 -> #0:0 (rawvideo (native) -> h264 (libx264))\n",
      "[libx264 @ 0x55cf74b14100] using cpu capabilities: MMX2 SSE2Fast SSSE3 SSE4.2 AVX FMA3 BMI2 AVX2 AVX512\n",
      "[libx264 @ 0x55cf74b14100] profile High, level 3.2, 4:2:0, 8-bit\n",
      "[libx264 @ 0x55cf74b14100] 264 - core 157 - H.264/MPEG-4 AVC codec - Copyleft 2003-2018 - http://www.videolan.org/x264.html - options: cabac=1 ref=3 deblock=1:0:0 analyse=0x3:0x113 me=hex subme=7 psy=1 psy_rd=1.00:0.00 mixed_ref=1 me_range=16 chroma_me=1 trellis=1 8x8dct=1 cqm=0 deadzone=21,11 fast_pskip=1 chroma_qp_offset=-2 threads=24 lookahead_threads=4 sliced_threads=0 nr=0 decimate=1 interlaced=0 bluray_compat=0 constrained_intra=0 bframes=3 b_pyramid=2 b_adapt=1 b_bias=0 direct=1 weightb=1 open_gop=0 weightp=2 keyint=250 keyint_min=8 scenecut=40 intra_refresh=0 rc_lookahead=40 rc=crf mbtree=1 crf=23.0 qcomp=0.60 qpmin=0 qpmax=69 qpstep=4 ip_ratio=1.40 aq=1:1.00\n",
      "Output #0, mp4, to 'phantoms_ggems_analytical+denoised_interpolated_15 projections.mp4':\n",
      "  Metadata:\n",
      "    encoder         : Lavf58.29.100\n",
      "    Stream #0:0: Video: h264 (libx264) (avc1 / 0x31637661), yuv420p, 1000x964, q=-1--1, 8.33 fps, 12800 tbn, 8.33 tbc\n",
      "    Metadata:\n",
      "      encoder         : Lavc58.54.100 libx264\n",
      "    Side data:\n",
      "      cpb: bitrate max/min/avg: 0/0/0 buffer size: 0 vbv_delay: -1\n",
      "frame=    8 fps=0.0 q=0.0 size=       0kB time=00:00:00.00 bitrate=N/A speed=   0x    \n",
      "frame=   15 fps= 14 q=0.0 size=       0kB time=00:00:00.00 bitrate=N/A speed=   0x    \n",
      "frame=   21 fps= 13 q=0.0 size=       0kB time=00:00:00.00 bitrate=N/A speed=   0x    \n",
      "frame=   28 fps= 13 q=0.0 size=       0kB time=00:00:00.00 bitrate=N/A speed=   0x    \n",
      "frame=   35 fps= 13 q=0.0 size=       0kB time=00:00:00.00 bitrate=N/A speed=   0x    \n",
      "frame=   42 fps= 13 q=0.0 size=       0kB time=00:00:00.00 bitrate=N/A speed=   0x    \n",
      "frame=   49 fps= 13 q=0.0 size=       0kB time=00:00:00.00 bitrate=N/A speed=   0x    \n",
      "frame=   56 fps= 13 q=0.0 size=       0kB time=00:00:00.00 bitrate=N/A speed=   0x    \n",
      "frame=   62 fps= 12 q=0.0 size=       0kB time=00:00:00.00 bitrate=N/A speed=   0x    \n",
      "frame=   68 fps= 12 q=0.0 size=       0kB time=00:00:00.00 bitrate=N/A speed=   0x    \n",
      "frame=   75 fps= 12 q=25.0 size=     768kB time=00:00:00.48 bitrate=13105.9kbits/s speed=0.0792x    \n",
      "frame=   82 fps= 12 q=25.0 size=    1536kB time=00:00:01.32 bitrate=9532.2kbits/s speed=0.199x    \n",
      "frame=   88 fps= 12 q=25.0 size=    2304kB time=00:00:02.04 bitrate=9252.0kbits/s speed=0.285x    \n",
      "frame=   89 fps= 12 q=-1.0 Lsize=   11130kB time=00:00:10.32 bitrate=8835.0kbits/s speed=1.35x    \n",
      "video:11128kB audio:0kB subtitle:0kB other streams:0kB global headers:0kB muxing overhead: 0.017209%\n",
      "[libx264 @ 0x55cf74b14100] frame I:1     Avg QP:22.91  size:148300\n",
      "[libx264 @ 0x55cf74b14100] frame P:22    Avg QP:22.78  size:135470\n",
      "[libx264 @ 0x55cf74b14100] frame B:66    Avg QP:24.12  size:125241\n",
      "[libx264 @ 0x55cf74b14100] consecutive B-frames:  1.1%  0.0%  0.0% 98.9%\n",
      "[libx264 @ 0x55cf74b14100] mb I  I16..4: 25.9% 44.3% 29.9%\n",
      "[libx264 @ 0x55cf74b14100] mb P  I16..4: 20.8% 21.3% 14.7%  P16..4:  9.9%  7.2%  3.5%  0.0%  0.0%    skip:22.6%\n",
      "[libx264 @ 0x55cf74b14100] mb B  I16..4: 12.1% 12.8% 13.3%  B16..8: 14.5%  4.8%  1.4%  direct: 4.9%  skip:36.1%  L0:41.0% L1:41.8% BI:17.2%\n",
      "[libx264 @ 0x55cf74b14100] 8x8 transform intra:35.1% inter:70.6%\n",
      "[libx264 @ 0x55cf74b14100] coded y,uvDC,uvAC intra: 62.7% 85.2% 63.9% inter: 13.9% 22.5% 6.3%\n",
      "[libx264 @ 0x55cf74b14100] i16 v,h,dc,p: 26% 23% 29% 22%\n",
      "[libx264 @ 0x55cf74b14100] i8 v,h,dc,ddl,ddr,vr,hd,vl,hu: 14% 10% 44%  6%  6%  5%  5%  5%  6%\n",
      "[libx264 @ 0x55cf74b14100] i4 v,h,dc,ddl,ddr,vr,hd,vl,hu: 30% 16% 17%  7%  6%  6%  6%  6%  6%\n",
      "[libx264 @ 0x55cf74b14100] i8c dc,h,v,p: 52% 16% 18% 15%\n",
      "[libx264 @ 0x55cf74b14100] Weighted P-Frames: Y:0.0% UV:0.0%\n",
      "[libx264 @ 0x55cf74b14100] ref P L0: 60.3% 10.6% 17.7% 11.4%\n",
      "[libx264 @ 0x55cf74b14100] ref B L0: 82.6% 12.9%  4.4%\n",
      "[libx264 @ 0x55cf74b14100] ref B L1: 94.3%  5.7%\n",
      "[libx264 @ 0x55cf74b14100] kb/s:8535.26\n",
      "\n"
     ]
    }
   ],
   "source": [
    "anim = controls.save_animation(\n",
    "    \"phantoms_ggems_analytical+denoised_interpolated_15 projections.mp4\", fig, \"axis0\", interval=120)"
   ]
  },
  {
   "cell_type": "code",
   "execution_count": null,
   "metadata": {},
   "outputs": [],
   "source": []
  }
 ],
 "metadata": {
  "kernelspec": {
   "display_name": "tigre_fastcat",
   "language": "python",
   "name": "python3"
  },
  "language_info": {
   "codemirror_mode": {
    "name": "ipython",
    "version": 3
   },
   "file_extension": ".py",
   "mimetype": "text/x-python",
   "name": "python",
   "nbconvert_exporter": "python",
   "pygments_lexer": "ipython3",
   "version": "3.11.5"
  }
 },
 "nbformat": 4,
 "nbformat_minor": 2
}
